<svg width="500" height="500" viewBox="0 0 500 500" fill="none" xmlns="http://www.w3.org/2000/svg">
<rect width="500" height="500" rx="100" fill="white"/>
<path d="M178.1 239.7C173.1 233.7 167.7 229.4 161.9 226.8C156.1 224 149.7 222.6 142.7 222.6C134.9 222.6 128 224 122 226.8C116 229.4 111 233.1 107 237.9C103.2 242.7 100.3 248.3 98.3 254.7C96.3 260.9 95.3 267.6 95.3 274.8C95.3 282 96.4 288.8 98.6 295.2C101 301.4 104.2 306.9 108.2 311.7C112.4 316.5 117.4 320.3 123.2 323.1C129 325.7 135.5 327 142.7 327C158.1 327 170 321.2 178.4 309.6L195.8 326.1C189 333.9 181 339.6 171.8 343.2C162.6 346.8 152.9 348.6 142.7 348.6C131.9 348.6 122 346.8 113 343.2C104 339.6 96.3 334.5 89.9 327.9C83.7 321.3 78.8 313.5 75.2 304.5C71.8 295.5 70.1 285.6 70.1 274.8C70.1 264.2 71.8 254.4 75.2 245.4C78.8 236.4 83.8 228.6 90.2 222C96.6 215.4 104.2 210.3 113 206.7C122 202.9 131.9 201 142.7 201C153.1 201 162.9 202.8 172.1 206.4C181.5 210 189.7 215.6 196.7 223.2L178.1 239.7ZM327.627 320.1H327.027C322.627 328.1 315.627 334.9 306.027 340.5C296.627 345.9 285.627 348.6 273.027 348.6C263.227 348.6 254.027 346.8 245.427 343.2C236.827 339.4 229.327 334.2 222.927 327.6C216.727 321 211.827 313.2 208.227 304.2C204.627 295.2 202.827 285.4 202.827 274.8C202.827 264.2 204.627 254.4 208.227 245.4C211.827 236.4 216.827 228.6 223.227 222C229.627 215.4 237.327 210.3 246.327 206.7C255.527 202.9 265.627 201 276.627 201C286.827 201 296.127 203.1 304.527 207.3C313.127 211.5 320.627 217.4 327.027 225H327.627V118.2H351.027V345H327.627V320.1ZM327.627 274.8C327.627 267.4 326.427 260.6 324.027 254.4C321.827 248 318.527 242.5 314.127 237.9C309.727 233.1 304.427 229.4 298.227 226.8C292.227 224 285.427 222.6 277.827 222.6C270.227 222.6 263.327 224 257.127 226.8C251.127 229.4 245.927 233.1 241.527 237.9C237.127 242.5 233.727 248 231.327 254.4C229.127 260.6 228.027 267.4 228.027 274.8C228.027 282.2 229.127 289.1 231.327 295.5C233.727 301.7 237.127 307.2 241.527 312C245.927 316.6 251.127 320.3 257.127 323.1C263.327 325.7 270.227 327 277.827 327C285.427 327 292.227 325.7 298.227 323.1C304.427 320.3 309.727 316.6 314.127 312C318.527 307.2 321.827 301.7 324.027 295.5C326.427 289.1 327.627 282.2 327.627 274.8ZM401.825 310.8C406.825 310.8 411.025 312.6 414.425 316.2C418.025 319.6 419.825 323.8 419.825 328.8C419.825 333.8 417.925 338.1 414.125 341.7C410.525 345.1 406.425 346.8 401.825 346.8C397.225 346.8 393.025 345.1 389.225 341.7C385.625 338.1 383.825 333.8 383.825 328.8C383.825 323.8 385.525 319.6 388.925 316.2C392.525 312.6 396.825 310.8 401.825 310.8Z" fill="black"/>
</svg>
