<svg width="500" height="500" viewBox="0 0 500 500" fill="none" xmlns="http://www.w3.org/2000/svg">
<g clip-path="url(#clip0_8_46)">
<path d="M169.516 308.219C172.641 308.87 175.18 310.302 177.133 312.516C170.622 329.964 160.531 343.049 146.859 351.773C133.188 360.367 118.344 364.664 102.328 364.664C94.3854 364.664 86.638 363.622 79.0859 361.539C71.5339 359.586 64.1771 356.331 57.0156 351.773C49.9844 347.216 43.7995 341.617 38.4609 334.977C33.2526 328.206 29.0208 319.807 25.7656 309.781C22.6406 299.625 21.0781 288.427 21.0781 276.188C21.0781 247.932 29.737 225.081 47.0547 207.633C64.3724 190.185 85.987 181.461 111.898 181.461C130.128 181.461 144.971 185.432 156.43 193.375C168.018 201.188 173.812 211.214 173.812 223.453C173.812 230.354 171.534 236.083 166.977 240.641C162.419 245.198 156.82 247.477 150.18 247.477C143.148 247.477 137.484 245.458 133.188 241.422C128.891 237.255 126.742 232.438 126.742 226.969C126.742 217.073 131.755 210.823 141.781 208.219C140.87 205.224 137.94 202.164 132.992 199.039C128.044 195.784 121.013 194.156 111.898 194.156C107.211 194.156 102.784 194.742 98.6172 195.914C94.4505 196.956 89.9583 199.234 85.1406 202.75C80.4531 206.266 76.4167 210.888 73.0312 216.617C69.776 222.346 67.0417 230.354 64.8281 240.641C62.6146 250.797 61.5078 262.646 61.5078 276.188C61.5078 285.302 62.4193 293.57 64.2422 300.992C66.1953 308.414 69.1901 315.12 73.2266 321.109C77.263 327.099 82.7969 331.786 89.8281 335.172C96.8594 338.557 105.128 340.25 114.633 340.25C120.622 340.25 126.286 339.469 131.625 337.906C136.964 336.214 141.26 334.456 144.516 332.633C147.901 330.81 151.482 328.076 155.258 324.43C159.164 320.654 161.768 317.984 163.07 316.422C164.372 314.729 166.521 311.995 169.516 308.219ZM287.695 78.1406C312.305 75.7969 334.31 70.4583 353.711 62.125C357.096 63.5573 359.31 65.3151 360.352 67.3984C360.352 214.924 360.938 303.206 362.109 332.242C362.24 335.628 363.216 338.557 365.039 341.031C366.992 343.375 369.727 345.198 373.242 346.5C376.758 347.802 379.688 348.779 382.031 349.43C384.375 349.951 387.435 350.471 391.211 350.992C391.732 353.076 391.992 354.703 391.992 355.875C391.992 356.656 391.732 358.089 391.211 360.172C386.654 359.911 381.966 359.651 377.148 359.391C372.461 359.13 368.75 358.935 366.016 358.805C363.281 358.674 360.742 358.609 358.398 358.609C356.445 358.609 354.232 358.674 351.758 358.805C349.284 358.935 345.898 359.13 341.602 359.391C337.305 359.651 333.073 359.911 328.906 360.172C328.255 359.911 327.669 359.586 327.148 359.195C326.758 358.935 326.432 358.74 326.172 358.609C326.042 358.349 325.846 358.023 325.586 357.633C325.326 357.112 325.13 356.786 325 356.656C324.87 356.526 324.674 356.135 324.414 355.484C324.284 354.703 324.154 354.247 324.023 354.117C324.544 350.992 324.805 343.961 324.805 333.023C303.32 354.117 283.464 364.664 265.234 364.664C245.182 364.664 228.841 357.112 216.211 342.008C203.581 326.904 197.266 306.331 197.266 280.289C197.266 271.305 198.307 262.32 200.391 253.336C202.474 244.352 205.924 235.497 210.742 226.773C215.56 218.049 221.484 210.367 228.516 203.727C235.547 197.086 244.466 191.747 255.273 187.711C266.081 183.544 278.06 181.461 291.211 181.461C300.977 181.461 312.435 183.544 325.586 187.711C325.326 162.971 325.195 132.177 325.195 95.3281C317.773 91.0312 305.273 88.362 287.695 87.3203C287.174 85.237 286.914 83.6745 286.914 82.6328C286.914 81.7214 287.174 80.224 287.695 78.1406ZM283.984 339.078C297.005 339.078 310.742 332.112 325.195 318.18C325.456 305.419 325.586 281.266 325.586 245.719V217.398C316.602 201.904 302.865 194.156 284.375 194.156C280.469 194.156 276.562 194.742 272.656 195.914C268.75 197.086 264.583 199.43 260.156 202.945C255.729 206.461 251.823 210.953 248.438 216.422C245.182 221.891 242.448 229.508 240.234 239.273C238.021 248.909 236.914 260.042 236.914 272.672C236.914 291.943 240.885 307.828 248.828 320.328C256.901 332.828 268.62 339.078 283.984 339.078ZM446.5 315.836C449.755 315.836 452.88 316.487 455.875 317.789C458.87 319.091 461.474 320.849 463.688 323.062C465.901 325.276 467.659 327.88 468.961 330.875C470.263 333.87 470.914 336.995 470.914 340.25C470.914 343.505 470.263 346.63 468.961 349.625C467.789 352.49 466.096 355.094 463.883 357.438C461.669 359.651 459.065 361.409 456.07 362.711C453.076 364.013 449.885 364.664 446.5 364.664C443.115 364.664 439.924 364.013 436.93 362.711C433.935 361.539 431.331 359.846 429.117 357.633C426.904 355.419 425.146 352.815 423.844 349.82C422.672 346.826 422.086 343.635 422.086 340.25C422.086 336.865 422.737 333.674 424.039 330.68C425.341 327.685 427.099 325.081 429.312 322.867C431.526 320.654 434.065 318.961 436.93 317.789C439.924 316.487 443.115 315.836 446.5 315.836Z" fill="black"/>
</g>
<defs>
<clipPath id="clip0_8_46">
<rect width="500" height="500" fill="white"/>
</clipPath>
</defs>
</svg>
